<?xml version="1.0" standalone="no"?><!-- Generator: Gravit.io --><svg xmlns="http://www.w3.org/2000/svg" xmlns:xlink="http://www.w3.org/1999/xlink" style="isolation:isolate" viewBox="971.707 695.5 396.836 905.824" width="396.836" height="905.824"><rect x="1137.016" y="1051.214" width="19" height="26.265" transform="matrix(0.9,0.4,-0.4,0.9,463.8,-343.2)" fill="rgb(255,255,255)"/><polygon points="1051.9,961,987,874,1116.8,874" fill="rgb(255,255,255)"/><rect x="1019.438" y="944.399" width="140.692" height="109.697" transform="matrix(1,0,0,1,0,0)" fill="rgb(255,255,255)"/><polygon points="1044,970.4,1059.8,924.5,1091.7,961.1" fill="rgb(255,255,255)"/><rect x="1153" y="1000" width="144" height="38" transform="matrix(1,0,0,1,0,0)" fill="rgb(255,255,255)"/><rect x="1061" y="944.399" width="33" height="7.601" transform="matrix(1,0,0,1,0,0)" fill="rgb(255,255,255)"/><rect x="1260" y="997" width="42" height="35.748" transform="matrix(1,0,0,1,0,0)" fill="rgb(255,255,255)"/><rect x="1148.096" y="1030.081" width="62.933" height="20.237" transform="matrix(1,-0.1,0.1,1,-120.3,154.8)" fill="rgb(255,255,255)"/><rect x="1308" y="999" width="31" height="9" transform="matrix(1,0,0,1,0,0)" fill="rgb(255,255,255)"/><rect x="1272" y="994" width="25" height="14" transform="matrix(1,0,0,1,0,0)" fill="rgb(255,255,255)"/><path d=" M 997 889 C 1012.8 905.1 1024.6 921 1016 942 C 1008.6 960 994.4 958.9 987 979 C 980.7 996.2 1017 1067.3 1013 1085 C 1009.5 1100.4 1002 1226.9 1010 1249 C 1018.2 1271.5 1009.1 1378.4 999.5 1410 C 989.9 1441.9 982.1 1495.2 978 1522 C 974.7 1543.5 973.7 1578.7 995 1586 C 1024.1 1596 1112.3 1604.8 1111 1585 C 1108.1 1540.7 1048.6 1558.3 1050 1539 Q 1051.7 1516 1072 1471 C 1106.8 1399.1 1093.8 1406.9 1123 1346 C 1127.5 1336.6 1145.8 1379.2 1148 1393 C 1152.2 1419.8 1158.8 1531 1160 1547 C 1161.2 1563 1159.2 1578.2 1200 1577 C 1244.5 1575.7 1293.4 1574.7 1296 1569 C 1298.6 1563.3 1333.9 1559.8 1311 1539 C 1284.4 1514.8 1259.1 1523.3 1244 1517 C 1217.7 1506 1212 1444.5 1224 1408 C 1228.3 1394.9 1210.7 1328.9 1202 1316 C 1191.1 1299.8 1181.4 1275.5 1178 1265 C 1173 1249.7 1167.8 1205.5 1166 1194 C 1163.6 1179.1 1160.1 1169.4 1155 1129 C 1149.9 1088.6 1150 1076.8 1149 1055" fill="rgb(255,255,255)" vector-effect="non-scaling-stroke" stroke-width="3" stroke="rgb(0,0,0)" stroke-linejoin="miter" stroke-linecap="square" stroke-miterlimit="3"/><path d=" M 1078 943 C 1085.4 948.6 1131.8 940.4 1148 942 C 1156.9 942.9 1166.7 945.1 1167 957 C 1168.6 965.9 1167.5 976.4 1166 985 C 1164.5 993.8 1165.2 997.1 1164 999" fill="rgb(255,255,255)" vector-effect="non-scaling-stroke" stroke-width="3" stroke="rgb(0,0,0)" stroke-linejoin="miter" stroke-linecap="square" stroke-miterlimit="3"/><path d=" M 998 890 C 985.5 873.8 974.8 843.1 977 816 Q 979.2 788.9 1004 762 C 1019 748.9 1047.4 739.6 1061 742 C 1068.5 739.5 1077.8 739.5 1089 742 C 1119.3 753.7 1129.1 769.2 1138 778 C 1147 786.9 1157.8 829.3 1152 848 C 1145.4 869 1139 883.4 1125 894.4 C 1114.9 901.5 1106.8 906.1 1094 911 C 1082.2 916.3 1068 936.9 1078 943" fill="rgb(255,255,255)" vector-effect="non-scaling-stroke" stroke-width="3" stroke="rgb(0,0,0)" stroke-linejoin="miter" stroke-linecap="square" stroke-miterlimit="3"/><path d=" M 1151 1054 C 1113 1056.3 1086.7 1050 1061 1044 C 1027.4 1036.1 998.3 1025.7 993 1011" fill="rgb(255,255,255)" vector-effect="non-scaling-stroke" stroke-width="3" stroke="rgb(0,0,0)" stroke-linejoin="miter" stroke-linecap="square" stroke-miterlimit="3"/><path d=" M 1005 957 C 1017.3 950.8 1031.9 960.1 1038 971 C 1039.2 973.2 1043.7 975.8 1049.4 978.3 C 1059.3 982.8 1072.7 987 1077 988 C 1083.7 989.5 1109.8 996.8 1118 998 C 1126.6 999.2 1140 1001.6 1157 1000" fill="rgb(255,255,255)" vector-effect="non-scaling-stroke" stroke-width="3" stroke="rgb(0,0,0)" stroke-linejoin="miter" stroke-linecap="square" stroke-miterlimit="3"/><path d=" M 1116.8 783.2 Q 1122.4 783 1148 805 C 1112.6 809.3 1110.3 817.2 1109.6 803 Q 1108.8 787.5 1116.8 783.2 Z " fill="rgb(255,255,255)" vector-effect="non-scaling-stroke" stroke-width="3" stroke="rgb(0,0,0)" stroke-linejoin="miter" stroke-linecap="square" stroke-miterlimit="3"/><path d=" M 1153 844 C 1146.2 842.2 1140.7 832.1 1130 837.5 C 1117.3 843.9 1129.2 856.3 1146 862" fill="rgb(255,255,255)" vector-effect="non-scaling-stroke" stroke-width="3" stroke="rgb(0,0,0)" stroke-linejoin="miter" stroke-linecap="square" stroke-miterlimit="3"/><path d=" M 1132 838 Q 1138.2 844.5 1151 850" fill="rgb(255,255,255)" vector-effect="non-scaling-stroke" stroke-width="3" stroke="rgb(0,0,0)" stroke-linejoin="miter" stroke-linecap="square" stroke-miterlimit="3"/><path d=" M 1131 853 Q 1142.6 855 1148 858" fill="rgb(255,255,255)" vector-effect="non-scaling-stroke" stroke-width="3" stroke="rgb(0,0,0)" stroke-linejoin="miter" stroke-linecap="square" stroke-miterlimit="3"/><path d=" M 1124 834 C 1133.5 829.9 1130.8 828.7 1136 830" fill="none" vector-effect="non-scaling-stroke" stroke-width="3" stroke="rgb(0,0,0)" stroke-linejoin="miter" stroke-linecap="square" stroke-miterlimit="3"/><line x1="1116.8" y1="783.2" x2="1111" y2="780" vector-effect="non-scaling-stroke" stroke-width="3" stroke="rgb(0,0,0)" stroke-linejoin="miter" stroke-linecap="square" stroke-miterlimit="3"/><path d=" M 1130 807 C 1131 802.3 1132.7 799.6 1135 799 C 1138.5 799.5 1142.2 800 1144 802" fill="none" vector-effect="non-scaling-stroke" stroke-width="3" stroke="rgb(0,0,0)" stroke-linejoin="miter" stroke-linecap="square" stroke-miterlimit="3"/><path d=" M 1157 1000 Q 1203.6 999 1214 998 C 1224.9 997 1243.3 998.3 1250 998 C 1257.9 997.7 1259.8 998.4 1266 998 C 1270.7 997.7 1294.6 986.1 1297 997" fill="rgb(255,255,255)" vector-effect="non-scaling-stroke" stroke-width="3" stroke="rgb(0,0,0)" stroke-linejoin="miter" stroke-linecap="square" stroke-miterlimit="3"/><path d=" M 1297 997 Q 1307.8 998.2 1319 998 C 1330.4 997.8 1341 998.7 1347 1000 C 1353.7 1001.5 1368 998.5 1363 1004 C 1357.5 1010.1 1349.7 1007.7 1344 1008 C 1338.3 1008.3 1305.8 1004.3 1303 1009 C 1300.7 1013 1300.4 1011.7 1303 1013" fill="rgb(255,255,255)" vector-effect="non-scaling-stroke" stroke-width="3" stroke="rgb(0,0,0)" stroke-linejoin="miter" stroke-linecap="square" stroke-miterlimit="3"/><path d=" M 1303 1013 Q 1314.6 1017.7 1310 1022 C 1308.5 1023.5 1301.6 1023 1302 1025 C 1302.4 1026.4 1305.5 1031.2 1299.1 1031.9 C 1298.5 1032 1296.8 1031.5 1297 1032 C 1297 1039.5 1293.4 1040 1289 1040 C 1285.1 1040 1273.6 1043.5 1268 1043 C 1262.8 1042.5 1263.5 1037.1 1258 1038 C 1252.5 1038.9 1154.3 1055.5 1151 1054" fill="rgb(255,255,255)" vector-effect="non-scaling-stroke" stroke-width="3" stroke="rgb(0,0,0)" stroke-linejoin="miter" stroke-linecap="square" stroke-miterlimit="3"/><path d=" M 1130 766 L 992 769 L 992 700 L 1012 718 L 1029 700 L 1044 717 L 1063 700 L 1081 718 L 1099 700 L 1113 718 L 1130 700 L 1130 766 Z " fill="rgb(255,255,255)" vector-effect="non-scaling-stroke" stroke-width="3" stroke="rgb(0,0,0)" stroke-linejoin="miter" stroke-linecap="square" stroke-miterlimit="3"/><path d=" M 1141 966 Q 1143.9 981.2 1141 1000" fill="rgb(255,255,255)" vector-effect="non-scaling-stroke" stroke-width="3" stroke="rgb(0,0,0)" stroke-linejoin="miter" stroke-linecap="square" stroke-miterlimit="3"/><path d=" M 1160 1056 Q 1159 1066.1 1151 1083" fill="rgb(255,255,255)" vector-effect="non-scaling-stroke" stroke-width="3" stroke="rgb(0,0,0)" stroke-linejoin="miter" stroke-linecap="square" stroke-miterlimit="3"/></svg>