<?xml version="1.0" standalone="no"?><!-- Generator: Gravit.io --><svg xmlns="http://www.w3.org/2000/svg" xmlns:xlink="http://www.w3.org/1999/xlink" style="isolation:isolate" viewBox="768.063 698.5 560.057 877.553" width="560.057" height="877.553"><polygon points="772.563,1439.497,933.564,1439,854.011,1574.687" fill="rgb(255,255,255)"/><polygon points="1326.064,1573.189,1165.062,1573.687,1244.615,1438" fill="rgb(255,255,255)"/><rect x="853.064" y="1439" width="392.499" height="135" transform="matrix(1,0,0,1,0,0)" fill="rgb(255,255,255)"/><rect x="772.563" y="704" width="473" height="735" transform="matrix(1,0,0,1,0,0)" fill="rgb(255,255,255)" vector-effect="non-scaling-stroke" stroke-width="3" stroke="rgb(0,0,0)" stroke-linejoin="miter" stroke-linecap="square" stroke-miterlimit="3"/><path d=" M 1243 703 L 853 750 L 853 1397 L 1243 1438" fill="none" vector-effect="non-scaling-stroke" stroke-width="3" stroke="rgb(0,0,0)" stroke-linejoin="miter" stroke-linecap="square" stroke-miterlimit="3"/><path d=" M 1175 968 C 1196.923 967 1208 977 1218 991 C 1228 1005 1219 1021 1219 1049 C 1219 1077 1218 1124 1215 1149 C 1212 1174 1208.352 1217.761 1205 1238 C 1201.473 1259.297 1202 1289 1201 1313 C 1200 1337 1199.8 1395.983 1200 1424 C 1200.254 1459.613 1213.754 1512.232 1199 1517 C 1184.952 1521.54 1163.091 1517.624 1138 1515 C 1113.801 1512.469 1126 1416 1123 1390 C 1120 1364 1115 1304 1110 1284 C 1105 1264 1070 1261 1063 1286 C 1056 1311 1061 1374 1059 1396 C 1057 1418 1065.197 1507.653 1057 1516 C 1044.945 1528.275 992.913 1536.726 978 1515 C 965.491 1496.776 972.742 1451.455 972 1403 C 971.228 1352.579 965.584 1329.038 966 1305 C 966.427 1280.329 960 1258 958 1232 C 956 1206 954.501 1167.313 950 1110 C 945.91 1057.91 949.091 1055.524 943 1010 C 936.134 958.677 981.432 971.221 1029 965 C 1051.282 962.086 1031.482 938.168 1019 922 C 1006.518 905.832 995.774 875.113 998 848 Q 1000.226 820.887 1025 794 C 1040.025 780.925 1068.368 771.601 1082 774 C 1089.479 771.496 1098.823 771.506 1110 774 C 1140.263 785.714 1150.095 801.217 1159 810 C 1168.035 818.911 1178.846 861.31 1173 880 C 1166.435 900.989 1160.017 915.411 1146.015 926.381 C 1135.89 933.472 1135.782 938.078 1123 943 C 1110.706 952.026 1110.769 962.846 1123 968 Q 1152.663 969.019 1175 968 Z " fill="rgb(255,255,255)" vector-effect="non-scaling-stroke" stroke-width="3" stroke="rgb(0,0,0)" stroke-linejoin="miter" stroke-linecap="square" stroke-miterlimit="3"/><line x1="772.563" y1="1438" x2="853" y2="1574" vector-effect="non-scaling-stroke" stroke-width="3" stroke="rgb(0,0,0)" stroke-linejoin="miter" stroke-linecap="square" stroke-miterlimit="3"/><line x1="1245.563" y1="1439" x2="1326.064" y2="1573.438" vector-effect="non-scaling-stroke" stroke-width="3" stroke="rgb(0,0,0)" stroke-linejoin="miter" stroke-linecap="square" stroke-miterlimit="3"/><line x1="853" y1="1574" x2="1326.064" y2="1573.189" vector-effect="non-scaling-stroke" stroke-width="3" stroke="rgb(0,0,0)" stroke-linejoin="miter" stroke-linecap="square" stroke-miterlimit="3"/><path d=" M 944 987.939 C 941.089 993.988 929.688 1056.81 926 1071 C 925.666 1067.084 920.216 1063.783 916 1064 C 902.526 1064.693 896.857 1066.238 893 1085 C 891.296 1093.289 890.917 1151.42 901 1155 C 911.083 1158.58 951.391 1180.201 954 1164 C 956.609 1147.799 981.201 1013.331 978 1026" fill="rgb(255,255,255)" vector-effect="non-scaling-stroke" stroke-width="3" stroke="rgb(0,0,0)" stroke-linejoin="miter" stroke-linecap="square" stroke-miterlimit="3"/><path d=" M 926 1071 C 923.321 1080.448 921.331 1090.458 920 1101" fill="none" vector-effect="non-scaling-stroke" stroke-width="3" stroke="rgb(0,0,0)" stroke-linejoin="miter" stroke-linecap="square" stroke-miterlimit="3"/><path d=" M 900 1069 C 896.608 1073.428 895.901 1074.692 896 1071 C 896.093 1067.531 894.581 1061 895 1055 C 895.396 1049.337 898.333 1043 900 1054 C 900.663 1058.373 902.239 1066.078 900 1069 Z " fill="rgb(255,255,255)" vector-effect="non-scaling-stroke" stroke-width="3" stroke="rgb(0,0,0)" stroke-linejoin="miter" stroke-linecap="square" stroke-miterlimit="3"/><path d=" M 903 1066 Q 898.648 1049.956 900 1043 C 901.352 1036.044 904.165 1035.978 905 1043 Q 905.835 1050.022 907 1065" fill="none" vector-effect="non-scaling-stroke" stroke-width="3" stroke="rgb(0,0,0)" stroke-linejoin="miter" stroke-linecap="square" stroke-miterlimit="3"/><path d=" M 909 1063 C 909.13 1047.906 909.921 1040.292 910 1038 C 910.139 1033.976 918.937 1016.829 918 1039 C 917.125 1059.683 917.357 1061.884 917 1064" fill="none" vector-effect="non-scaling-stroke" stroke-width="3" stroke="rgb(0,0,0)" stroke-linejoin="miter" stroke-linecap="square" stroke-miterlimit="3"/><path d=" M 920 1064 Q 922.866 1033.979 925 1030 C 927.211 1025.878 930.37 1024.144 931 1031 Q 931.63 1037.856 928 1061" fill="none" vector-effect="non-scaling-stroke" stroke-width="3" stroke="rgb(0,0,0)" stroke-linejoin="miter" stroke-linecap="square" stroke-miterlimit="3"/><path d=" M 972 1429 Q 926.58 1415.794 920 1425 C 913.42 1434.206 898.445 1436.303 909 1454 C 919.555 1471.697 933.68 1482.355 944 1491 Q 954.32 1499.645 982 1519 C 972.354 1498.226 967.707 1468.246 972 1429 Z " fill="rgb(255,255,255)" vector-effect="non-scaling-stroke" stroke-width="3" stroke="rgb(0,0,0)" stroke-linejoin="miter" stroke-linecap="square" stroke-miterlimit="3"/><path d=" M 1126.908 1493.345 C 1124.498 1481.181 1122.427 1457.707 1123.838 1434.008 Q 1104.599 1422.9 1089.281 1423 C 1073.342 1423.105 1071.191 1427.016 1072.002 1445.016 C 1072.798 1462.677 1128.568 1511.357 1132.953 1513 C 1133.401 1513.168 1129.126 1504.544 1126.908 1493.345 Z " fill="rgb(255,255,255)" vector-effect="non-scaling-stroke" stroke-width="3" stroke="rgb(0,0,0)" stroke-linejoin="miter" stroke-linecap="square" stroke-miterlimit="3"/><rect x="949.346" y="1428.306" width="65.603" height="79.01" transform="matrix(0.788,0.615,-0.615,0.788,1111.361,-293.548)" fill="rgb(255,255,255)"/><path d=" M 972 1426 Q 972 1429.615 972 1430 L 965 1427" fill="none" vector-effect="non-scaling-stroke" stroke-width="3" stroke="rgb(0,0,0)" stroke-linejoin="miter" stroke-linecap="square" stroke-miterlimit="3"/><rect x="1099.62" y="1441.698" width="63.855" height="57.85" transform="matrix(0.725,0.688,-0.688,0.725,1323.055,-375.036)" fill="rgb(255,255,255)"/><path d=" M 1123 1429 C 1122.84 1430.598 1122.292 1431.269 1123 1433 C 1121.587 1432.067 1120.489 1432.082 1118 1431" fill="none" vector-effect="non-scaling-stroke" stroke-width="3" stroke="rgb(0,0,0)" stroke-linejoin="miter" stroke-linecap="square" stroke-miterlimit="3"/><path d=" M 1218 991 C 1239.268 1018.648 1249.055 1081.67 1243 1115 Q 1236.945 1148.33 1218 1127" fill="none" vector-effect="non-scaling-stroke" stroke-width="3" stroke="rgb(0,0,0)" stroke-linejoin="miter" stroke-linecap="square" stroke-miterlimit="3"/></svg>