<?xml version="1.0" standalone="no"?><!-- Generator: Gravit.io --><svg xmlns="http://www.w3.org/2000/svg" xmlns:xlink="http://www.w3.org/1999/xlink" style="isolation:isolate" viewBox="572.951 635.5 657.026 839.669" width="657.026" height="839.669"><path d=" M 614 640 L 705 646 Q 753 641 768 646 C 783 651 832 638 854 646 C 876 654 962 659 993 655 C 1024 651 1093 638 1108 646 C 1123 654 1171 643 1183 646 C 1195 649 1205.321 711.393 1193 730 C 1180.679 748.607 1189.337 826.03 1204 853 C 1218.663 879.97 1206.833 966.337 1208 992 C 1209.167 1017.663 1188.589 1061.534 1206 1076 C 1223.411 1090.466 1208.502 1137.164 1212 1170 C 1215.498 1202.836 1220.833 1286.636 1215 1312 Q 1209.167 1337.364 1211 1337 Q 1202.345 1389.935 1220 1423 C 1237.655 1456.065 1210.054 1463.014 1174 1454 C 1137.946 1444.986 1054.077 1432.526 1024 1453 C 993.923 1473.474 940.849 1447.36 893 1462 C 845.151 1476.64 822.054 1433.03 779 1458 C 735.946 1482.97 711.519 1426.195 681 1453 C 650.481 1479.805 591.291 1473.926 591 1450 C 590.485 1407.621 614.566 1387.313 589 1375 C 563.434 1362.687 586.669 1322.187 598 1291 C 609.331 1259.813 567.834 1188.4 587 1179 C 606.166 1169.6 574.495 1141.692 584 1105 C 593.505 1068.308 580.165 1011.818 590 991 C 599.835 970.182 638.653 904.306 605 923 C 571.347 941.694 607.59 840.117 614 864 C 620.41 887.883 636.739 788.33 608 793 C 579.261 797.67 561.188 747.968 609 738 Q 656.812 728.032 614 640 Z " fill="rgb(255,255,255)" vector-effect="non-scaling-stroke" stroke-width="3" stroke="rgb(0,0,0)" stroke-linejoin="miter" stroke-linecap="square" stroke-miterlimit="3"/><path d=" M 705 744 C 735.284 732.9 743.981 730.074 773 744 Q 802.019 757.926 832 729 Q 833.535 748.799 872 748 C 910.465 747.201 925.1 709.608 944 729 C 962.9 748.392 1050.862 728.115 1076 746 C 1101.138 763.885 1112.81 729.224 1132 740" fill="none" vector-effect="non-scaling-stroke" stroke-width="3" stroke="rgb(0,0,0)" stroke-linejoin="miter" stroke-linecap="square" stroke-miterlimit="3"/><path d=" M 705 821 Q 751.556 792.613 775 814 C 798.444 835.387 799.38 794.571 815 812 Q 830.62 829.429 858 806 Q 869.375 809.599 876 809 C 924.133 804.652 943.183 837.431 959 809 C 974.817 780.569 976.365 817.038 1003 828 C 1029.635 838.962 1029.546 795.722 1057 809 C 1084.454 822.278 1092.002 852.064 1121 833 Q 1149.998 813.936 1142 809" fill="none" vector-effect="non-scaling-stroke" stroke-width="3" stroke="rgb(0,0,0)" stroke-linejoin="miter" stroke-linecap="square" stroke-miterlimit="3"/><path d=" M 705 888 Q 725.762 866.181 751 898 C 776.238 929.819 767.428 898.515 776 910 Q 784.572 921.485 790 923" fill="none" vector-effect="non-scaling-stroke" stroke-width="3" stroke="rgb(0,0,0)" stroke-linejoin="miter" stroke-linecap="square" stroke-miterlimit="3"/><path d=" M 1057 655 L 832 853 L 790 923 L 862 923 L 1098 707 L 1057 655 Z " fill="rgb(255,255,255)" vector-effect="non-scaling-stroke" stroke-width="3" stroke="rgb(0,0,0)" stroke-linejoin="miter" stroke-linecap="square" stroke-miterlimit="3"/><path d=" M 1057 655 C 1040.475 697.259 1064.171 728.099 1098 707 C 1132.678 685.372 1094.204 642.821 1057 655 Z " fill="rgb(255,255,255)" vector-effect="non-scaling-stroke" stroke-width="3" stroke="rgb(0,0,0)" stroke-linejoin="miter" stroke-linecap="square" stroke-miterlimit="3"/><path d=" M 832 853 C 822.702 888.204 832.712 911.547 862 923" fill="none" vector-effect="non-scaling-stroke" stroke-width="3" stroke="rgb(0,0,0)" stroke-linejoin="miter" stroke-linecap="square" stroke-miterlimit="3"/><path d=" M 796 917 C 794.964 923.231 798.641 922.241 793 920" fill="none" vector-effect="non-scaling-stroke" stroke-width="5" stroke="rgb(0,0,0)" stroke-linejoin="miter" stroke-linecap="square" stroke-miterlimit="3"/></svg>